<svg width="395" height="395" viewBox="0 0 395 395" fill="none" xmlns="http://www.w3.org/2000/svg">
<path fill-rule="evenodd" clip-rule="evenodd" d="M197.5 0C306.576 0 395 88.4238 395 197.5C395 306.576 306.576 395 197.5 395C88.4238 395 0 306.576 0 197.5C0 88.4238 88.4238 0 197.5 0Z" fill="#064E3B"/>
<mask id="mask0_216_4057" style="mask-type:luminance" maskUnits="userSpaceOnUse" x="0" y="0" width="395" height="395">
<path d="M197.5 0C306.576 0 395 88.4238 395 197.5C395 306.576 306.576 395 197.5 395C88.4238 395 0 306.576 0 197.5C0 88.4238 88.4238 0 197.5 0Z" fill="white"/>
</mask>
<g mask="url(#mask0_216_4057)">
<path fill-rule="evenodd" clip-rule="evenodd" d="M149.173 213.625L368.252 432.704H368.254L368.255 432.704L149.176 213.625L149.175 213.625H149.173Z" fill="#059669"/>
<path fill-rule="evenodd" clip-rule="evenodd" d="M136.181 154.189L355.26 373.268L355.201 373.298L355.135 373.364L355.058 373.464L354.965 373.595L354.851 373.755L354.71 373.94L354.539 374.149L354.332 374.378L354.057 374.666L353.773 374.963L353.478 375.266L353.173 375.574L352.856 375.884L352.529 376.194L352.19 376.503L351.839 376.808L351.476 377.109L351.1 377.402L350.712 377.687L350.31 377.96L349.895 378.22L349.467 378.465L349.024 378.694L348.567 378.904L348.095 379.093L347.607 379.259L347.105 379.401L346.587 379.517L346.054 379.605L345.504 379.662L344.937 379.686L344.353 379.677L343.752 379.632L343.134 379.549L342.498 379.426L341.843 379.261L341.17 379.052L340.478 378.798L339.767 378.496L339.037 378.145L119.958 159.066L120.688 159.417L121.4 159.719L122.091 159.973L122.765 160.182L123.419 160.347L124.055 160.47L124.673 160.553L125.274 160.598L125.858 160.608L126.425 160.583L126.975 160.525L127.509 160.438L128.027 160.322L128.529 160.181L129.016 160.014L129.488 159.825L129.945 159.615L130.388 159.386L130.817 159.141L131.231 158.881L131.633 158.608L132.022 158.323L132.397 158.031L132.76 157.73L133.111 157.424L133.45 157.115L133.778 156.804L134.094 156.495L134.399 156.188L134.694 155.884L134.978 155.588L135.253 155.299L135.46 155.07L135.631 154.861L135.772 154.676L135.886 154.516L135.979 154.385L136.056 154.285L136.122 154.219L136.181 154.189Z" fill="#059669"/>
<path fill-rule="evenodd" clip-rule="evenodd" d="M173.057 113.1L392.135 332.179L392.078 332.74L392.019 333.296L391.959 333.845L391.898 334.389L391.836 334.927L391.772 335.458L391.708 335.983L391.642 336.502L391.574 337.015L391.505 337.522L391.435 338.022L391.363 338.516L391.29 339.005L391.215 339.486L391.138 339.961L391.06 340.43L390.98 340.892L390.898 341.348L390.814 341.796L390.729 342.239L390.642 342.675L390.553 343.104L390.461 343.527L390.368 343.943L390.273 344.352L390.175 344.754L390.077 345.149L389.975 345.538L389.871 345.919L389.765 346.294L389.656 346.661L389.545 347.023L170.467 127.943L170.578 127.583L170.686 127.215L170.792 126.84L170.896 126.459L170.998 126.07L171.097 125.675L171.194 125.273L171.289 124.864L171.383 124.448L171.474 124.025L171.563 123.596L171.65 123.16L171.736 122.718L171.819 122.269L171.901 121.813L171.981 121.35L172.059 120.882L172.136 120.407L172.211 119.925L172.285 119.438L172.356 118.943L172.426 118.443L172.495 117.936L172.563 117.423L172.629 116.904L172.694 116.378L172.757 115.847L172.819 115.31L172.881 114.766L172.94 114.217L172.999 113.661L173.057 113.1Z" fill="#059669"/>
<path fill-rule="evenodd" clip-rule="evenodd" d="M145.766 158.371L364.844 377.45L364.56 377.181L364.25 376.913L363.915 376.649L363.559 376.388L363.183 376.133L362.792 375.883L362.386 375.64L361.968 375.404L361.542 375.176L361.108 374.956L360.67 374.746L360.231 374.547L359.792 374.358L359.356 374.181L358.925 374.017L358.503 373.866L358.091 373.73L357.692 373.608L357.309 373.502L356.943 373.413L356.597 373.341L356.275 373.287L355.977 373.252L355.707 373.237L355.467 373.241L355.26 373.268L136.181 154.189L136.389 154.162L136.629 154.158L136.898 154.173L137.196 154.208L137.519 154.262L137.864 154.334L138.23 154.423L138.613 154.529L139.013 154.651L139.425 154.787L139.847 154.938L140.277 155.102L140.713 155.279L141.152 155.467L141.591 155.667L142.029 155.877L142.463 156.097L142.89 156.325L143.307 156.561L143.713 156.804L144.105 157.054L144.48 157.31L144.836 157.569L145.171 157.834L145.481 158.101L145.766 158.371Z" fill="#059669"/>
<path fill-rule="evenodd" clip-rule="evenodd" d="M262.975 271.571L482.054 490.65L482.023 491.16L481.984 491.669L481.936 492.175L481.879 492.68L481.813 493.182L481.737 493.681L481.653 494.179L481.558 494.674L481.455 495.167L481.342 495.657L481.219 496.144L481.087 496.629L480.945 497.112L480.793 497.592L480.631 498.068L480.459 498.544L480.277 499.014L480.085 499.484L479.882 499.95L479.669 500.412L479.446 500.873L479.211 501.33L478.967 501.784L478.711 502.235L478.445 502.683L478.168 503.128L477.879 503.569L477.58 504.008L477.27 504.443L476.947 504.875L476.614 505.303L476.27 505.728L257.191 286.649L257.536 286.224L257.869 285.796L258.191 285.364L258.501 284.929L258.801 284.491L259.089 284.049L259.366 283.604L259.633 283.156L259.888 282.705L260.133 282.251L260.367 281.794L260.59 281.334L260.803 280.871L261.006 280.405L261.198 279.936L261.38 279.464L261.553 278.99L261.715 278.513L261.866 278.033L262.008 277.55L262.141 277.065L262.263 276.578L262.376 276.088L262.479 275.595L262.574 275.1L262.658 274.603L262.734 274.103L262.8 273.601L262.857 273.096L262.906 272.59L262.945 272.082L262.975 271.571Z" fill="#059669"/>
<path fill-rule="evenodd" clip-rule="evenodd" d="M119.958 159.066L339.037 378.145L338.078 377.698L337.194 377.208L336.382 376.677L335.639 376.107L334.962 375.5L115.883 156.421L116.561 157.028L117.304 157.598L118.115 158.129L118.999 158.619L119.958 159.066Z" fill="#059669"/>
<path fill-rule="evenodd" clip-rule="evenodd" d="M257.191 286.649L476.27 505.728L476.092 506.136L475.882 506.53L475.64 506.913L475.37 507.284L475.072 507.643L474.75 507.991L474.406 508.329L474.04 508.657L473.657 508.975L473.258 509.284L472.844 509.585L472.419 509.877L471.985 510.16L471.542 510.438L471.095 510.707L470.643 510.97L251.565 291.892L252.016 291.628L252.463 291.359L252.906 291.082L253.341 290.798L253.766 290.506L254.179 290.206L254.579 289.897L254.962 289.578L255.327 289.25L255.672 288.912L255.993 288.564L256.291 288.205L256.562 287.834L256.803 287.451L257.014 287.057L257.191 286.649Z" fill="#059669"/>
<path fill-rule="evenodd" clip-rule="evenodd" d="M262.553 264.387L481.632 483.466L482.065 484.556L482.507 485.597L482.954 486.595L483.405 487.552L483.856 488.47L484.304 489.355L484.748 490.209L485.183 491.035L485.607 491.837L486.018 492.619L486.413 493.382L486.788 494.13L487.141 494.868L487.469 495.598L487.77 496.324L488.041 497.049L488.278 497.776L488.479 498.508L488.641 499.249L488.762 500.003L488.838 500.772L488.869 501.56L488.848 502.37L488.775 503.205L488.646 504.07L488.459 504.966L488.211 505.898L487.899 506.869L487.52 507.882L487.072 508.94L486.552 510.046L485.957 511.205L485.65 511.855L485.429 512.49L485.29 513.11L485.228 513.712L485.24 514.297L485.321 514.865L485.467 515.412L485.675 515.941L485.939 516.449L486.255 516.936L486.621 517.401L487.03 517.844L267.951 298.765L267.542 298.322L267.177 297.857L266.86 297.37L266.596 296.862L266.389 296.334L266.243 295.785L266.161 295.218L266.15 294.633L266.211 294.031L266.35 293.412L266.571 292.776L266.878 292.126L267.474 290.968L267.994 289.861L268.442 288.802L268.821 287.79L269.132 286.819L269.38 285.887L269.568 284.991L269.696 284.127L269.769 283.291L269.79 282.481L269.76 281.693L269.683 280.924L269.562 280.171L269.4 279.429L269.199 278.697L268.962 277.97L268.691 277.245L268.391 276.52L268.062 275.789L267.709 275.052L267.334 274.303L266.939 273.54L266.529 272.759L266.105 271.957L265.669 271.13L265.226 270.276L264.777 269.392L264.326 268.473L263.876 267.516L263.428 266.518L262.986 265.477L262.553 264.387Z" fill="#059669"/>
<path fill-rule="evenodd" clip-rule="evenodd" d="M284.284 291.204L503.362 510.283L503.167 510.1L502.943 509.918L502.7 509.73L283.622 290.652L283.864 290.84L284.089 291.021L284.284 291.204Z" fill="#059669"/>
<path fill-rule="evenodd" clip-rule="evenodd" d="M251.565 291.892L470.643 510.97L470.431 511.126L470.216 511.281L469.998 511.434L469.779 511.587L469.557 511.74L469.333 511.892L469.108 512.043L468.879 512.193L468.648 512.343L468.416 512.492L468.181 512.64L467.943 512.787L467.703 512.934L467.462 513.08L467.217 513.225L466.971 513.37L247.892 294.291L248.139 294.146L248.383 294.001L248.625 293.855L248.865 293.708L249.102 293.561L249.337 293.413L249.57 293.264L249.8 293.114L250.029 292.964L250.255 292.813L250.479 292.661L250.701 292.508L250.92 292.356L251.137 292.201L251.352 292.047L251.565 291.892Z" fill="#059669"/>
<path fill-rule="evenodd" clip-rule="evenodd" d="M249.534 295.551L468.613 514.63L468.866 514.889L469.094 515.158L469.296 515.438L469.472 515.734L469.619 516.047L469.74 516.379L469.832 516.735L469.896 517.117L469.931 517.528L469.937 517.97L469.913 518.446L250.834 299.367L250.858 298.891L250.853 298.449L250.818 298.038L250.753 297.656L250.661 297.301L250.541 296.967L250.393 296.655L250.218 296.36L250.016 296.079L249.788 295.81L249.534 295.551Z" fill="#059669"/>
<path fill-rule="evenodd" clip-rule="evenodd" d="M250.834 299.367L469.913 518.446L469.884 518.757L469.844 519.071L469.794 519.386L469.73 519.7L469.649 520.009L469.55 520.311L469.431 520.603L469.288 520.883L250.209 301.804L250.352 301.524L250.471 301.232L250.57 300.93L250.651 300.621L250.715 300.308L250.766 299.992L250.805 299.678L250.834 299.367Z" fill="#059669"/>
<path fill-rule="evenodd" clip-rule="evenodd" d="M178.324 247.436L397.402 466.515L397.32 466.814L397.244 467.176L397.173 467.599L397.109 468.079L397.05 468.611L396.996 469.193L396.947 469.819L396.903 470.488L396.863 471.194L396.827 471.934L396.796 472.705L396.768 473.502L396.743 474.321L396.723 475.16L396.704 476.014L396.689 476.88L396.676 477.753L396.666 478.629L396.658 479.507L396.651 480.381L396.646 481.248L396.642 482.103L396.64 482.944L396.638 483.766L396.637 484.567L396.636 485.34L396.636 486.085L396.635 486.795L396.634 487.468L396.632 488.101L396.63 488.688L396.627 489.227L396.62 490.023L396.613 490.864L396.605 491.747L396.594 492.668L396.581 493.626L396.566 494.616L396.548 495.635L396.526 496.681L396.5 497.75L396.47 498.838L396.434 499.943L396.393 501.06L396.346 502.189L396.293 503.323L396.233 504.462L396.165 505.601L396.09 506.738L396.006 507.868L395.914 508.99L395.812 510.099L395.701 511.193L395.58 512.267L395.448 513.32L395.305 514.348L395.151 515.347L394.984 516.315L394.806 517.248L394.614 518.143L394.409 518.997L394.19 519.806L393.957 520.568L393.709 521.28L174.63 302.201L174.878 301.49L175.111 300.728L175.33 299.918L175.535 299.064L175.727 298.169L175.906 297.236L176.072 296.268L176.226 295.269L176.369 294.241L176.501 293.188L176.622 292.113L176.734 291.02L176.835 289.911L176.927 288.79L177.011 287.659L177.086 286.523L177.154 285.383L177.214 284.245L177.267 283.109L177.314 281.982L177.355 280.863L177.391 279.759L177.421 278.671L177.447 277.602L177.469 276.557L177.488 275.537L177.503 274.547L177.515 273.589L177.526 272.668L177.534 271.785L177.541 270.943L177.548 270.148L177.551 269.609L177.554 269.022L177.555 268.389L177.556 267.716L177.558 267.005V266.261L177.559 265.487L177.559 264.688L177.561 263.865L177.564 263.025L177.567 262.169L177.573 261.302L177.579 260.428L177.588 259.551L177.598 258.673L177.61 257.8L177.626 256.935L177.644 256.081L177.665 255.242L177.689 254.423L177.717 253.626L177.749 252.855L177.784 252.115L177.824 251.409L177.868 250.741L177.917 250.114L177.971 249.532L178.03 249L178.095 248.52L178.165 248.097L178.241 247.735L178.324 247.436Z" fill="#059669"/>
<path fill-rule="evenodd" clip-rule="evenodd" d="M184.862 252.531L403.941 471.61L403.601 471.301L403.258 470.997L402.912 470.699L402.564 470.405L402.213 470.115L401.859 469.829L401.502 469.547L401.142 469.267L400.78 468.989L400.415 468.714L400.047 468.439L399.676 468.165L399.304 467.892L398.928 467.618L398.55 467.345L398.17 467.07L397.787 466.793L397.402 466.515L178.323 247.436L178.708 247.714L179.091 247.991L179.471 248.266L179.849 248.54L180.225 248.813L180.598 249.086L180.968 249.36L181.336 249.634L181.701 249.91L182.064 250.188L182.423 250.468L182.78 250.75L183.134 251.036L183.485 251.326L183.834 251.62L184.18 251.918L184.522 252.222L184.862 252.531Z" fill="#059669"/>
<path fill-rule="evenodd" clip-rule="evenodd" d="M211.119 285.825L430.198 504.904L429.984 504.721L429.761 504.531L429.529 504.334L429.287 504.131L429.036 503.922L428.778 503.707L428.511 503.486L428.237 503.26L427.955 503.029L427.668 502.794L427.373 502.553L427.072 502.309L426.766 502.061L426.455 501.809L426.139 501.554L425.817 501.295L425.492 501.034L425.164 500.77L424.831 500.505L424.496 500.236L424.159 499.966L423.818 499.695L423.476 499.423L423.133 499.149L422.788 498.875L422.443 498.601L422.098 498.326L421.752 498.052L421.407 497.778L421.062 497.504L420.719 497.232L420.377 496.961L420.036 496.691L419.696 496.422L419.358 496.154L419.022 495.887L418.688 495.622L418.356 495.358L418.027 495.096L417.701 494.836L417.38 494.578L417.061 494.323L416.747 494.07L416.438 493.819L416.133 493.572L415.834 493.327L415.54 493.086L415.253 492.848L414.971 492.613L414.696 492.383L414.429 492.155L414.168 491.932L413.915 491.713L413.67 491.498L413.434 491.288L413.206 491.083L412.987 490.883L193.908 271.804L194.127 272.004L194.355 272.21L194.592 272.42L194.837 272.634L195.089 272.853L195.35 273.076L195.618 273.304L195.893 273.535L196.174 273.769L196.462 274.007L196.755 274.249L197.054 274.493L197.359 274.74L197.668 274.991L197.982 275.244L198.301 275.5L198.623 275.757L198.949 276.017L199.277 276.279L199.609 276.543L199.943 276.808L200.28 277.075L200.617 277.343L200.957 277.612L201.298 277.882L201.64 278.154L201.983 278.426L202.328 278.699L202.673 278.973L203.019 279.247L203.364 279.522L203.71 279.796L204.054 280.071L204.398 280.344L204.74 280.616L205.08 280.888L205.418 281.157L205.753 281.425L206.085 281.691L206.414 281.955L206.739 282.216L207.06 282.475L207.376 282.73L207.688 282.982L207.994 283.23L208.295 283.475L208.589 283.715L208.877 283.95L209.158 284.181L209.433 284.407L209.699 284.628L209.957 284.843L210.208 285.052L210.45 285.256L210.682 285.452L210.906 285.642L211.119 285.825Z" fill="#059669"/>
<path fill-rule="evenodd" clip-rule="evenodd" d="M250.209 301.804L469.288 520.883L469.144 521.119L468.986 521.34L468.816 521.546L468.633 521.739L468.439 521.918L468.234 522.085L468.019 522.239L467.795 522.381L467.562 522.512L467.32 522.631L467.072 522.741L466.816 522.84L466.554 522.93L466.286 523.01L466.013 523.082L465.737 523.146L465.456 523.202L465.173 523.252L464.887 523.294L464.6 523.331L464.311 523.361L464.022 523.388L463.734 523.408L463.446 523.425L463.16 523.438L462.877 523.447L462.595 523.454L462.318 523.459L462.045 523.461L461.777 523.462L461.514 523.463H461.258L460.956 523.463L460.623 523.465L460.26 523.467L459.867 523.47L459.446 523.473L458.998 523.477L458.523 523.482L458.023 523.488L457.497 523.495L456.949 523.502L456.378 523.509L455.784 523.517L455.17 523.526L454.536 523.535L453.883 523.545L453.212 523.555L452.524 523.566L451.819 523.577L451.099 523.588L450.365 523.6L449.617 523.613L448.857 523.625L448.086 523.638L447.304 523.651L446.512 523.664L445.711 523.677L444.903 523.691L444.087 523.705L443.266 523.719L442.44 523.734L441.61 523.747L440.777 523.762L439.702 523.79L438.597 523.836L437.465 523.896L436.307 523.968L435.128 524.048L433.928 524.132L432.712 524.218L431.482 524.302L430.24 524.382L428.99 524.452L427.733 524.511L426.473 524.555L425.214 524.581L423.956 524.585L422.702 524.565L421.457 524.517L420.222 524.437L419 524.323L417.795 524.17L416.607 523.978L415.441 523.74L414.299 523.455L413.184 523.118L412.098 522.728L411.044 522.28L410.026 521.771L409.045 521.198L408.105 520.558L407.207 519.847L188.128 300.768L189.026 301.479L189.967 302.119L190.947 302.692L191.966 303.201L193.019 303.649L194.105 304.039L195.22 304.376L196.363 304.661L197.528 304.898L198.716 305.092L199.922 305.244L201.144 305.358L202.378 305.438L203.624 305.486L204.877 305.506L206.135 305.502L207.394 305.476L208.655 305.432L209.911 305.373L211.161 305.303L212.403 305.224L213.633 305.14L214.849 305.053L216.049 304.969L217.229 304.889L218.386 304.817L219.519 304.757L220.623 304.711L221.698 304.683L222.531 304.669L223.361 304.654L224.187 304.64L225.009 304.626L225.824 304.613L226.632 304.599L227.433 304.585L228.225 304.571L229.007 304.559L229.779 304.546L230.539 304.533L231.287 304.521L232.021 304.51L232.741 304.498L233.445 304.487L234.133 304.477L234.804 304.466L235.457 304.456L236.091 304.447L236.706 304.438L237.299 304.43L237.871 304.423L238.419 304.416L238.944 304.409L239.444 304.404L239.919 304.398L240.367 304.394L240.788 304.391L241.181 304.387L241.544 304.386L241.877 304.385L242.179 304.384H242.436L242.698 304.383L242.966 304.382L243.239 304.38L243.517 304.375L243.798 304.368L244.082 304.358L244.368 304.346L244.655 304.33L244.944 304.308L245.233 304.283L245.521 304.252L245.809 304.216L246.094 304.173L246.377 304.124L246.658 304.067L246.935 304.003L247.208 303.931L247.475 303.85L247.737 303.761L247.993 303.662L248.242 303.552L248.483 303.433L248.716 303.302L248.941 303.16L249.155 303.006L249.36 302.84L249.555 302.66L249.737 302.468L249.907 302.261L250.065 302.04L250.209 301.804Z" fill="#059669"/>
<path fill-rule="evenodd" clip-rule="evenodd" d="M174.63 302.201L393.709 521.28L393.545 521.671L393.359 522.03L393.151 522.359L392.923 522.658L392.675 522.93L392.409 523.175L392.125 523.393L391.825 523.588L391.509 523.76L391.178 523.91L390.835 524.04L390.479 524.15L390.111 524.242L389.734 524.317L389.346 524.378L388.951 524.423L388.548 524.456L388.139 524.477L387.724 524.488L387.306 524.49L386.884 524.483L386.46 524.47L386.034 524.452L385.609 524.43L385.183 524.404L384.761 524.377L384.341 524.35L383.924 524.323L383.513 524.299L383.108 524.278L382.709 524.261L382.319 524.251L163.24 305.172L163.63 305.182L164.029 305.199L164.435 305.22L164.846 305.244L165.262 305.27L165.682 305.298L166.105 305.325L166.53 305.351L166.955 305.373L167.381 305.391L167.805 305.404L168.227 305.41L168.646 305.409L169.06 305.398L169.469 305.377L169.872 305.344L170.268 305.299L170.655 305.239L171.033 305.163L171.4 305.071L171.756 304.961L172.1 304.831L172.43 304.681L172.746 304.509L173.046 304.314L173.33 304.096L173.596 303.851L173.845 303.58L174.073 303.28L174.28 302.951L174.467 302.592L174.63 302.201Z" fill="#059669"/>
<path fill-rule="evenodd" clip-rule="evenodd" d="M163.24 305.172L382.319 524.251L381.885 524.238L381.425 524.209L380.941 524.165L380.436 524.106L379.913 524.03L379.375 523.94L378.825 523.834L378.265 523.712L377.701 523.574L377.133 523.421L376.566 523.252L376.001 523.067L375.444 522.866L374.894 522.648L374.358 522.414L373.836 522.165L373.333 521.899L372.851 521.616L372.393 521.317L371.963 521.002L371.562 520.67L152.483 301.591L152.884 301.923L153.314 302.238L153.772 302.537L154.254 302.82L154.757 303.086L155.279 303.335L155.816 303.569L156.365 303.786L156.923 303.988L157.487 304.173L158.055 304.342L158.622 304.496L159.187 304.633L159.746 304.755L160.296 304.861L160.834 304.952L161.358 305.027L161.862 305.086L162.346 305.13L162.807 305.159L163.24 305.172Z" fill="#059669"/>
<path fill-rule="evenodd" clip-rule="evenodd" d="M284.226 293.957L503.305 513.037L503.257 513.305L503.212 513.57L503.168 513.831L503.125 514.087L503.083 514.34L503.042 514.59L503 514.837L502.959 515.08L502.915 515.32L502.871 515.558L502.825 515.793L502.777 516.025L502.725 516.254L502.671 516.482L502.613 516.708L502.551 516.932L502.486 517.154L502.414 517.375L502.337 517.594L502.255 517.812L502.167 518.029L502.072 518.245L501.97 518.46L501.86 518.675L501.743 518.889L501.617 519.103L501.482 519.317L501.339 519.531L501.185 519.745L501.021 519.96L500.847 520.175L500.662 520.391L281.583 301.312L281.769 301.096L281.942 300.881L282.107 300.666L282.26 300.452L282.403 300.238L282.538 300.024L282.664 299.811L282.781 299.596L282.891 299.381L282.993 299.166L283.088 298.95L283.177 298.733L283.259 298.515L283.336 298.296L283.407 298.075L283.473 297.853L283.535 297.629L283.592 297.403L283.647 297.176L283.698 296.946L283.746 296.713L283.793 296.479L283.837 296.241L283.88 296.001L283.922 295.757L283.963 295.511L284.005 295.261L284.047 295.009L284.089 294.751L284.133 294.491L284.179 294.226L284.226 293.957Z" fill="#059669"/>
<path fill-rule="evenodd" clip-rule="evenodd" d="M281.584 301.312L500.662 520.391L500.137 520.915L499.554 521.368L498.92 521.751L498.239 522.065L497.519 522.312L496.764 522.496L495.981 522.616L495.175 522.675L494.352 522.674L493.518 522.616L492.679 522.501L491.84 522.332L491.008 522.111L490.187 521.838L489.385 521.516L488.606 521.147L487.856 520.733L487.142 520.274L486.469 519.773L485.842 519.232L266.764 300.153L267.39 300.694L268.063 301.195L268.778 301.654L269.527 302.068L270.306 302.437L271.108 302.759L271.929 303.032L272.762 303.253L273.6 303.422L274.44 303.537L275.273 303.595L276.096 303.596L276.902 303.537L277.686 303.417L278.44 303.234L279.16 302.986L279.841 302.672L280.475 302.289L281.058 301.836L281.584 301.312Z" fill="#059669"/>
<path fill-rule="evenodd" clip-rule="evenodd" d="M284.742 291.131L503.821 510.21L503.967 510.391L504.066 510.591L504.123 510.808L504.141 511.038L504.124 511.28L504.074 511.531L503.998 511.786L503.897 512.045L503.775 512.305L503.637 512.562L503.486 512.814L503.326 513.059L284.248 293.98L284.408 293.735L284.558 293.483L284.697 293.226L284.818 292.966L284.919 292.707L284.996 292.452L285.045 292.201L285.062 291.959L285.044 291.729L284.988 291.512L284.888 291.312L284.742 291.131Z" fill="#059669"/>
<path fill-rule="evenodd" clip-rule="evenodd" d="M165.364 90.1683L384.442 309.248L384.663 309.507L384.69 309.543L384.763 309.645L384.88 309.81L385.037 310.036L385.231 310.321L385.458 310.662L385.715 311.058L385.998 311.505L386.306 312.004L386.633 312.549L386.977 313.14L387.334 313.774L387.701 314.45L388.075 315.164L388.452 315.916L388.83 316.701L389.203 317.519L389.57 318.367L389.927 319.244L390.271 320.146L390.598 321.071L390.905 322.018L391.188 322.985L391.445 323.968L391.672 324.965L391.865 325.975L392.021 326.996L392.137 328.025L392.21 329.06L392.237 330.099L392.213 331.139L392.135 332.179L173.057 113.1L173.134 112.06L173.158 111.02L173.132 109.981L173.059 108.947L172.942 107.917L172.786 106.897L172.593 105.886L172.366 104.889L172.11 103.905L171.826 102.94L171.519 101.992L171.192 101.067L170.848 100.165L170.492 99.2885L170.125 98.4402L169.751 97.622L169.373 96.8363L168.996 96.0852L168.622 95.3707L168.256 94.6954L167.898 94.0613L167.554 93.4699L167.227 92.9243L166.92 92.4267L166.636 91.9794L166.379 91.5836L166.152 91.2422L165.959 90.9576L165.802 90.7313L165.684 90.5664L165.611 90.4646L165.584 90.4281L165.364 90.1683Z" fill="#059669"/>
<path fill-rule="evenodd" clip-rule="evenodd" d="M170.883 128.359L389.961 347.438L390.396 347.894L390.848 348.391L391.317 348.927L391.804 349.5L392.307 350.111L392.827 350.757L393.362 351.438L393.913 352.153L394.479 352.901L395.06 353.681L395.654 354.492L396.263 355.332L396.886 356.201L397.521 357.098L398.17 358.021L398.83 358.971L399.503 359.945L400.187 360.943L400.883 361.963L401.589 363.005L402.306 364.067L403.033 365.149L403.769 366.25L404.515 367.368L405.27 368.503L406.033 369.653L406.804 370.818L407.584 371.996L408.369 373.186L409.163 374.388L409.963 375.601L411.592 378.028L413.329 380.542L415.168 383.136L417.098 385.804L419.114 388.539L421.204 391.336L423.362 394.188L425.58 397.088L427.849 400.03L430.161 403.009L432.506 406.017L434.879 409.049L437.269 412.099L439.669 415.158L442.07 418.223L444.465 421.285L446.844 424.339L449.199 427.379L451.524 430.398L453.808 433.39L456.044 436.349L458.223 439.268L460.338 442.141L462.38 444.962L464.34 447.724L466.211 450.421L467.983 453.047L469.65 455.596L471.202 458.061L472.632 460.435L473.931 462.713L475.09 464.889L475.39 465.479L475.685 466.069L475.974 466.659L476.258 467.249L476.537 467.838L476.81 468.427L477.078 469.016L477.339 469.604L477.595 470.192L477.845 470.779L478.089 471.366L478.327 471.952L478.558 472.538L478.783 473.122L479.001 473.706L479.214 474.289L479.419 474.871L479.618 475.452L479.809 476.033L479.994 476.612L480.172 477.19L480.342 477.767L480.506 478.344L480.661 478.918L480.81 479.491L480.951 480.064L481.084 480.634L481.209 481.204L481.327 481.772L481.437 482.338L481.539 482.902L481.632 483.466L262.553 264.387L262.46 263.824L262.358 263.259L262.249 262.693L262.131 262.125L262.006 261.555L261.872 260.985L261.731 260.413L261.583 259.839L261.427 259.264L261.263 258.688L261.093 258.111L260.915 257.533L260.73 256.954L260.539 256.373L260.34 255.792L260.135 255.21L259.923 254.627L259.704 254.043L259.479 253.458L259.248 252.873L259.01 252.287L258.766 251.701L258.517 251.113L258.261 250.525L257.999 249.937L257.731 249.348L257.458 248.759L257.18 248.17L256.896 247.58L256.606 246.991L256.311 246.4L256.012 245.81L254.852 243.635L253.553 241.357L252.123 238.982L250.572 236.517L248.905 233.968L247.132 231.343L245.261 228.645L243.301 225.883L241.259 223.062L239.145 220.189L236.965 217.27L234.729 214.311L232.445 211.32L230.121 208.3L227.765 205.26L225.386 202.206L222.991 199.144L220.59 196.08L218.19 193.02L215.8 189.971L213.428 186.939L211.082 183.93L208.77 180.952L206.501 178.009L204.284 175.109L202.125 172.257L200.035 169.46L198.02 166.725L196.089 164.057L194.25 161.463L192.513 158.949L190.884 156.521L190.084 155.309L189.291 154.107L188.505 152.917L187.726 151.739L186.954 150.574L186.192 149.424L185.436 148.289L184.691 147.172L183.954 146.071L183.227 144.988L182.51 143.926L181.804 142.884L181.108 141.864L180.424 140.866L179.752 139.892L179.091 138.943L178.442 138.019L177.807 137.122L177.184 136.253L176.576 135.413L175.981 134.602L175.4 133.822L174.834 133.074L174.283 132.359L173.748 131.677L173.228 131.031L172.725 130.421L172.238 129.847L171.769 129.312L171.317 128.816L170.883 128.359Z" fill="#059669"/>
<path fill-rule="evenodd" clip-rule="evenodd" d="M149.177 213.627C149.176 213.626 149.18 213.627 149.177 213.627ZM170.467 127.944C174.806 132.153 182.319 143.539 190.884 156.522C207.647 181.93 244.416 223.176 256.011 245.81C259.237 252.107 261.6 258.388 262.553 264.387C267.115 276.272 273.638 279.476 266.878 292.126C263.13 299.139 274.766 303.702 279.018 301.694C282.332 300.13 282.783 296.058 284.437 292.459C284.868 291.52 284.282 291.17 283.621 290.652C285.756 290.981 285.12 292.701 284.247 293.98C283.727 296.869 283.618 299.005 281.583 301.312C276.306 307.293 260.235 300.741 265.007 291.134C269.593 281.904 266.703 278.243 262.975 271.571C262.697 277.031 260.928 282.134 257.191 286.649C256.338 288.857 253.974 290.504 251.565 291.892C250.435 292.721 249.213 293.522 247.892 294.291C249.962 295.676 251.042 296.731 250.834 299.367C250.766 300.189 250.621 301.076 250.209 301.804C248.743 304.399 244.881 304.384 242.179 304.384C239.128 304.384 230.601 304.53 221.697 304.683C210.411 304.876 193.458 308.67 185.721 298.18C181.745 292.789 183.606 287.335 191.683 286.74C198.07 286.27 204.975 285.924 211.119 285.825C208.897 283.908 204.934 280.766 201.298 277.882C197.658 274.996 194.152 272.244 192.659 270.549C190.504 268.12 189.205 265.115 188.916 262.336C188.844 260.576 188.976 259.045 189.284 257.716C186.165 252.979 182.444 250.419 178.323 247.436C177.412 250.267 177.592 264.672 177.548 270.148C177.481 278.38 177.355 294.897 174.63 302.201C173.009 306.548 167.359 305.246 163.24 305.172C158.773 305.11 149.185 302.453 150.943 296.824C151.405 295.346 152.459 294.336 154.176 294.051C157.365 293.524 159.5 289.97 159.425 286.955C159.348 283.872 160.138 242.93 160.304 234.46C160.508 224.092 154.327 220.977 149.177 213.627C149.176 213.626 149.18 213.627 149.177 213.627C144.962 207.61 141.7 198.881 144.129 180.919C145.043 174.165 147.375 163.017 146.779 159.999C146.216 157.15 138.209 153.793 136.181 154.189C136.027 154.218 135.858 154.663 135.253 155.299C132.377 158.326 127.853 163.085 119.958 159.066C109.319 154.536 112.025 142.305 110.963 133.336L110.843 133.183C110.402 132.58 110.122 131.901 110.006 131.225C109.998 131.177 109.991 131.13 109.984 131.082C109.747 129.393 110.413 127.599 111.522 126.233C114.041 123.132 118.061 122.472 121.596 124.37C121.922 124.545 123.505 123.844 123.948 123.591C127.762 121.417 130.44 115.643 133.998 113.77C137.002 112.188 141.451 110.888 154.321 111.296L161.577 91.0107C162.177 89.3218 164.482 88.9259 165.584 90.428C165.609 90.4615 174.179 102.022 173.057 113.1C172.447 119.12 171.661 124.134 170.467 127.944Z" fill="#059669"/>
</g>
<path fill-rule="evenodd" clip-rule="evenodd" d="M262.315 263.753C266.883 276.163 273.757 279.254 266.878 292.126C263.131 299.139 274.767 303.702 279.018 301.694C282.332 300.13 282.784 296.058 284.437 292.459C284.868 291.52 284.283 291.17 283.622 290.651C285.756 290.981 285.12 292.701 284.247 293.98C283.728 296.869 283.618 299.005 281.583 301.312C276.307 307.293 260.235 300.741 265.008 291.134C270.995 279.083 264.24 276.525 259.512 264.365C259.343 263.591 259.834 262.827 260.607 262.658C261.381 262.489 262.145 262.979 262.315 263.753Z" fill="#2B2122"/>
<path fill-rule="evenodd" clip-rule="evenodd" d="M256.012 245.81C265.532 264.394 267.556 282.847 247.892 294.291C249.441 295.328 250.984 296.435 250.86 298.961C250.754 301.122 250.247 302.503 248.407 303.477C247.112 304.162 245.241 304.384 242.179 304.384C239.128 304.384 230.601 304.53 221.698 304.683C210.411 304.876 193.459 308.671 185.721 298.18C184.848 296.996 184.209 295.74 183.908 294.501C183.548 293.017 183.661 291.572 184.386 290.279C185.447 288.386 187.734 287.032 191.683 286.741C196.008 286.422 200.025 286.198 203.661 286.047C206.471 285.93 208.957 285.86 211.119 285.826C208.897 283.909 204.935 280.766 201.298 277.882C197.731 275.053 194.45 272.451 192.997 270.917C189.355 267.072 188.309 261.91 189.409 257.907C186.264 253.047 182.5 250.459 178.324 247.436C176.535 252.995 179.223 289.887 174.63 302.201C173.009 306.548 167.36 305.246 163.24 305.172C158.774 305.11 149.185 302.453 150.943 296.824C151.405 295.346 152.459 294.336 154.177 294.051C157.365 293.524 159.5 289.97 159.426 286.955C159.392 285.624 159.622 271.62 159.886 257.157C160.056 247.821 160.201 239.728 160.305 234.46C160.694 214.715 137.404 220.507 144.72 177.035C146.021 169.308 147.177 162.439 146.796 160.08L146.779 160C146.262 157.263 138.596 153.904 136.234 154.178C136.079 154.208 135.858 154.663 135.253 155.299C132.377 158.326 127.853 163.085 119.958 159.066C109.319 154.537 112.026 142.305 110.964 133.336C109.897 132.036 109.705 130.363 110.191 128.718C110.446 127.852 110.904 126.996 111.523 126.233C112.086 125.54 112.793 124.913 113.612 124.421C113.659 124.389 113.708 124.359 113.758 124.33C115.893 123.11 118.709 122.773 121.66 124.405C126.835 123.67 129.764 115.999 133.998 113.77C137.003 112.188 141.452 110.888 154.322 111.296L161.577 91.0109C161.726 90.5938 162 90.2165 162.384 89.9352C163.404 89.1878 164.837 89.4085 165.584 90.4282C165.609 90.4617 174.18 102.022 173.057 113.1C172.527 118.336 171.941 121.882 171.402 124.363C171.07 125.892 170.749 127.044 170.467 127.944C174.806 132.153 182.319 143.539 190.884 156.522C207.647 181.93 244.416 223.177 256.012 245.81Z" fill="#33292A"/>
<path fill-rule="evenodd" clip-rule="evenodd" d="M110.151 131.832C110.271 132.079 110.404 132.324 110.548 132.566C112.878 136.462 117.48 138.112 120.827 136.25C124.173 134.388 124.997 129.72 122.667 125.823C122.354 125.301 122.001 124.819 121.616 124.381C118.681 122.776 115.882 123.116 113.758 124.33C113.708 124.358 113.659 124.389 113.612 124.421C112.793 124.913 112.086 125.539 111.523 126.233C110.904 126.996 110.446 127.852 110.191 128.717C109.877 129.78 109.846 130.854 110.151 131.832Z" fill="#33292A"/>
<path fill-rule="evenodd" clip-rule="evenodd" d="M110.964 133.336C112.025 142.305 109.319 154.537 119.958 159.066C127.853 163.085 132.377 158.326 135.253 155.299C135.858 154.663 136.027 154.218 136.181 154.189C138.544 153.915 146.262 157.263 146.779 160L146.795 160.08C147.177 162.439 146.021 169.308 144.72 177.035C144.494 178.376 144.298 179.67 144.129 180.92C144.322 180.535 144.457 180.266 144.465 180.253C146.318 177.353 145.392 178.653 147.671 176.525C150.055 174.296 154.168 172.558 156.673 171.12L156.933 170.971C162.235 167.929 164.491 166.785 166.371 160.526C167.48 156.832 166.311 150.288 162.35 148.848C158.524 147.456 156.733 147.999 152.989 147.055L152.477 146.807C146.557 143.945 146.225 147.258 140.935 140.409C136.756 134.998 130.446 135.442 128.697 132.589C125.968 128.137 128.397 123.655 128.672 119.053C126.618 121.56 124.47 124.005 121.66 124.405C121.675 124.413 121.645 124.397 121.66 124.405C122.045 124.843 122.354 125.301 122.666 125.823C124.997 129.72 124.173 134.388 120.827 136.25C117.48 138.112 112.878 136.463 110.548 132.566C110.403 132.324 110.271 132.079 110.15 131.832C110.318 132.368 110.586 132.875 110.964 133.336Z" fill="#A47654"/>
<path fill-rule="evenodd" clip-rule="evenodd" d="M229.468 262.812C212.126 250.909 188.117 242.802 188.916 262.336C189.22 265.257 190.639 268.428 192.996 270.917C194.449 272.451 197.73 275.053 201.298 277.882C204.934 280.766 208.897 283.908 211.119 285.825C208.956 285.86 206.471 285.93 203.661 286.047C200.025 286.197 196.008 286.421 191.683 286.74C187.733 287.032 185.447 288.386 184.386 290.278C183.66 291.572 183.548 293.016 183.908 294.5C184.208 295.74 184.848 296.996 185.721 298.18C193.458 308.67 210.411 304.876 221.697 304.683C230.601 304.53 239.128 304.384 242.179 304.384C245.241 304.384 247.111 304.162 248.407 303.476C250.247 302.503 250.753 301.122 250.859 298.96C250.972 296.659 249.701 295.535 248.302 294.569C247.955 294.527 246.725 294.672 247.107 294.423C253.882 290.011 273.97 284.793 229.468 262.812Z" fill="#3B3031"/>
<path fill-rule="evenodd" clip-rule="evenodd" d="M174.63 302.201C177.849 293.572 177.491 272.875 177.605 259.347C177.327 259.081 177.122 258.842 177.063 258.557C175.784 258.262 173.673 257.009 172.769 256.115C168.711 253.598 165.304 244.909 166.956 241.85C171.442 233.544 168.089 233.037 163.168 227.412C160.736 224.633 157.965 220.958 156.104 217.928C155.48 216.911 152.015 215.136 149.173 213.625C154.169 220.757 160.509 224.08 160.305 234.46C160.201 239.728 160.056 247.821 159.885 257.157C159.622 271.62 159.392 285.624 159.426 286.955C159.5 289.97 157.365 293.524 154.177 294.051C152.459 294.336 151.405 295.346 150.943 296.824C149.185 302.453 158.774 305.11 163.24 305.172C167.36 305.246 173.009 306.548 174.63 302.201Z" fill="#A47654"/>
<path fill-rule="evenodd" clip-rule="evenodd" d="M228.103 297.947C212.927 297.947 223.878 291.929 216.902 290.054C215.6 289.705 214.039 289.301 212.771 289.256C197.175 288.707 196.445 291.332 196.893 286.392C195.213 286.493 193.475 286.609 191.683 286.741C187.734 287.032 185.447 288.386 184.386 290.279C183.661 291.573 183.548 293.017 183.908 294.501C184.209 295.74 184.848 296.996 185.721 298.18C193.459 308.671 210.411 304.877 221.698 304.683C230.601 304.531 239.129 304.384 242.179 304.384C245.241 304.384 247.112 304.162 248.408 303.477C250.129 302.566 250.683 301.298 250.834 299.367C243.309 295.997 237.342 297.947 228.709 297.947H228.103Z" fill="#A47654"/>
<path fill-rule="evenodd" clip-rule="evenodd" d="M145.259 124.067C143.338 125.242 142.541 127.436 143.479 128.968C144.416 130.499 146.732 130.788 148.653 129.613C150.573 128.438 151.37 126.244 150.433 124.712C149.495 123.181 147.179 122.892 145.259 124.067Z" fill="#A5D6A7"/>
<path d="M145.144 123.879C144.119 124.507 143.394 125.406 143.05 126.353C142.706 127.3 142.744 128.294 143.244 129.111C143.744 129.929 144.612 130.415 145.612 130.539C146.611 130.664 147.742 130.428 148.767 129.8C149.792 129.173 150.517 128.274 150.861 127.327C151.205 126.381 151.168 125.386 150.668 124.569C150.167 123.751 149.299 123.265 148.299 123.141C147.3 123.016 146.169 123.252 145.144 123.879ZM143.544 126.414C143.844 125.588 144.478 124.802 145.373 124.254C146.269 123.706 147.257 123.5 148.129 123.608C149.002 123.717 149.761 124.142 150.198 124.856C150.635 125.57 150.668 126.439 150.367 127.266C150.067 128.092 149.433 128.878 148.538 129.426C147.643 129.974 146.655 130.18 145.782 130.072C144.909 129.963 144.15 129.538 143.714 128.824C143.276 128.11 143.244 127.241 143.544 126.414Z" fill="#212121"/>
<path fill-rule="evenodd" clip-rule="evenodd" d="M145.833 125.005C144.563 125.783 144.036 127.234 144.656 128.247C145.276 129.26 146.808 129.451 148.078 128.674C149.348 127.897 149.875 126.446 149.255 125.433C148.636 124.42 147.103 124.228 145.833 125.005Z" fill="#424242"/>
<path fill-rule="evenodd" clip-rule="evenodd" d="M146.816 125.128C146.498 125.323 146.398 125.738 146.593 126.056C146.787 126.375 147.203 126.475 147.521 126.28C147.839 126.086 147.939 125.67 147.744 125.352C147.549 125.034 147.133 124.934 146.816 125.128Z" fill="#E0E0E0"/>
<path fill-rule="evenodd" clip-rule="evenodd" d="M164.527 100.183C165.992 105.842 165.435 111.868 166.207 117.85C166.277 118.387 166.635 120.886 165.866 120.086C163.805 117.944 158.52 115.456 160.082 112.838L160.313 112.452C162.443 108.883 162.447 108.18 163.444 104.553C163.964 102.66 163.728 102.698 163.96 101.559C164.028 101.225 164.173 101.603 164.333 100.364C164.342 100.296 164.532 100.204 164.527 100.183Z" fill="#2B2021"/>
</svg>
